<svg xmlns="http://www.w3.org/2000/svg" width="30" height="23" viewBox="0 0 30 23">
    <path fill="#3C3E41" fill-rule="evenodd" d="M26.5 15.476v-4.952c1.495.132 2.5.836 2.5 1.476v2c0 .64-1.005 1.344-2.5 1.476M15 22c-4.411 0-8-4.012-8-8.944 0-4.933 3.589-8.945 8-8.945s8 4.012 8 8.945A9.736 9.736 0 0 1 22.169 17h-4.761c-.207-.582-.756-1-1.408-1h-1a1.5 1.5 0 1 0 0 3h1c.652 0 1.201-.419 1.408-1h4.253c-1.435 2.408-3.885 4-6.661 4M1 14v-2c0-.64 1.005-1.344 2.5-1.476v4.952C2.005 15.344 1 14.64 1 14m25.486-4.48C26.196 4.226 21.156 0 15 0 8.844 0 3.804 4.227 3.514 9.52 1.509 9.664 0 10.7 0 12v2c0 1.402 1.757 2.5 4 2.5a.5.5 0 0 0 .5-.5v-6c0-4.963 4.71-9 10.5-9 5.789 0 10.5 4.037 10.5 9v5.793L24.293 17h-1.035c.475-1.21.742-2.543.742-3.944 0-5.484-4.037-9.945-9-9.945s-9 4.461-9 9.945C6 18.54 10.037 23 15 23c3.333 0 6.242-2.018 7.798-5H24.5c.065 0 .13-.013.191-.039a.489.489 0 0 0 .163-.108l1.36-1.359C28.353 16.426 30 15.357 30 14v-2c0-1.299-1.509-2.335-3.514-2.48"/>
</svg>
