<svg xmlns="http://www.w3.org/2000/svg" xmlns:xlink="http://www.w3.org/1999/xlink" width="165" height="48" viewBox="0 0 165 48">
    <defs>
        <path id="a" d="M.275 36.422h39.658V.244H.275z"/>
    </defs>
    <g fill="none" fill-rule="evenodd">
        <path fill="#1F5C87" d="M161.834 21v-1.778H161V19h2v.222h-.837V21zM164.635 19l-.637 1.505-.634-1.505H163v2h.254v-1.645l.692 1.645h.104l.695-1.645V21H165v-2zM53.742 19.534H47.36a.353.353 0 0 0-.35.356v.945c0 .197.156.355.35.355h2.31v7.224c0 .196.157.355.35.355h1.047c.193 0 .35-.159.35-.355V21.19h2.324c.193 0 .35-.158.35-.355v-.945a.353.353 0 0 0-.35-.356M61.219 25.221l1.273-3.262 1.265 3.262h-2.538zm2.243-5.465a.352.352 0 0 0-.326-.222h-1.298a.35.35 0 0 0-.325.223l-3.38 8.524a.363.363 0 0 0 .035.332.35.35 0 0 0 .291.156h1.197a.351.351 0 0 0 .326-.224l.656-1.668h3.71l.657 1.668a.351.351 0 0 0 .326.224H66.546a.357.357 0 1 0 .27-.582l-3.354-8.43zM75.452 23.114c-1.097-.302-1.763-.524-1.763-1.051 0-.598.554-1 1.377-1 .877 0 1.65.322 2.173.907.069.076.168.1.269.116a.347.347 0 0 0 .262-.13l.63-.779a.358.358 0 0 0-.016-.47c-.796-.85-1.917-1.3-3.243-1.3-1.876 0-3.238 1.144-3.238 2.72 0 1.914 1.691 2.38 3.051 2.755 1.196.33 1.93.567 1.93 1.27 0 .538-.428 1.114-1.63 1.114-1.23 0-2.023-.687-2.386-1.096a.34.34 0 0 0-.274-.119.35.35 0 0 0-.264.138l-.618.805a.358.358 0 0 0 .014.454c.59.673 1.672 1.474 3.49 1.474 2.547 0 3.453-1.478 3.453-2.86 0-2.063-1.86-2.575-3.217-2.948M87.965 23.943l3.305-3.818a.36.36 0 0 0 .055-.382.35.35 0 0 0-.32-.209h-1.312c-.102 0-.2.046-.266.125l-3.103 3.677V19.89a.353.353 0 0 0-.35-.356h-1.046a.353.353 0 0 0-.35.356v8.524c0 .196.156.355.35.355h1.046c.194 0 .35-.159.35-.355v-2.728l.49-.562 2.927 3.519c.067.08.165.126.268.126h1.317a.353.353 0 0 0 .35-.355.358.358 0 0 0-.158-.297l-3.553-4.174zM107.512 19.534h-1.16a.352.352 0 0 0-.34.265l-1.52 5.83-1.585-5.833a.353.353 0 0 0-.338-.262h-.87a.352.352 0 0 0-.34.262l-1.584 5.838-1.532-5.836a.352.352 0 0 0-.34-.264h-1.16a.35.35 0 0 0-.28.142.36.36 0 0 0-.056.311l2.395 8.524a.35.35 0 0 0 .337.258h1.135a.35.35 0 0 0 .338-.262l1.515-5.62 1.516 5.62c.042.155.18.262.338.262h1.135a.35.35 0 0 0 .337-.258l2.396-8.524a.36.36 0 0 0-.057-.311.35.35 0 0 0-.28-.142M117.31 27.266c-1.637 0-2.738-1.248-2.738-3.108 0-1.859 1.1-3.108 2.738-3.108s2.739 1.25 2.739 3.108c0 1.86-1.101 3.108-2.739 3.108m0-7.872c-2.621 0-4.524 2.004-4.524 4.764 0 2.761 1.903 4.765 4.524 4.765 2.623 0 4.525-2.004 4.525-4.765 0-2.76-1.902-4.764-4.525-4.764M132.75 22.46c0 .765-.535 1.279-1.328 1.279h-1.856V21.19h1.856c.806 0 1.327.498 1.327 1.268zm-.164 2.728c1.038-.3 1.948-1.196 1.948-2.729 0-1.722-1.228-2.925-2.986-2.925h-3.379c-.193 0-.35.16-.35.356v8.524c0 .196.157.355.35.355h1.046c.194 0 .351-.16.351-.355v-3.032h1.134l2.04 3.223a.35.35 0 0 0 .296.164h1.254a.357.357 0 1 0 .225-.628l-1.929-2.953zM145.836 27.112h-3.559V19.89a.353.353 0 0 0-.35-.356h-1.047a.353.353 0 0 0-.35.356v8.524c0 .196.157.355.35.355h4.956c.194 0 .35-.159.35-.355v-.946a.353.353 0 0 0-.35-.356M158.108 24.158c0 1.47-.89 2.954-2.878 2.954h-1.477v-5.921h1.477c1.748 0 2.878 1.165 2.878 2.967m-2.878-4.624h-2.874a.353.353 0 0 0-.35.356v8.524c0 .196.156.355.35.355h2.874c2.745 0 4.663-1.896 4.663-4.61 0-2.68-1.96-4.625-4.663-4.625"/>
        <path fill="#4FBFC1" d="M0 34.931l.011-21.568c0-.805.414-1.548 1.085-1.95L19.076.64a2.097 2.097 0 0 1 2.167 0l17.969 10.795a2.271 2.271 0 0 1 1.083 1.952l-.011 21.567a2.27 2.27 0 0 1-1.085 1.95l-17.98 10.775a2.097 2.097 0 0 1-2.168-.001L1.083 36.883A2.27 2.27 0 0 1 0 34.93"/>
        <g transform="translate(.346 11.557)">
            <mask id="b" fill="#fff">
                <use xlink:href="#a"/>
            </mask>
            <path fill="#25A9AC" d="M39.933 1.57a2.29 2.29 0 0 0-.61-1.326L.275 24.953c.136.143.29.27.462.373l17.97 10.794c.67.403 1.496.403 2.167 0l17.979-10.773a2.264 2.264 0 0 0 1.08-1.865V1.569z" mask="url(#b)"/>
        </g>
        <path fill="#FFF" d="M11.753 30.197c.925 0 1.679-.767 1.679-1.71v-3.385c0-.943-.754-1.71-1.68-1.71-.925 0-1.678.767-1.678 1.71v3.385c0 .943.753 1.71 1.679 1.71M25.184 25.093c.926 0 1.679-.767 1.679-1.71v-3.385c0-.943-.753-1.711-1.679-1.711s-1.679.768-1.679 1.71v3.385c0 .944.753 1.71 1.68 1.71"/>
        <path fill="#FFF" d="M30.231 18.283c0-.937.75-1.696 1.674-1.696.924 0 1.674.76 1.674 1.696v8.646c0 .482.042 2.162-1.126 3.48-.602.68-1.735 1.49-3.715 1.49H21.63c-1.98 0-3.113-.81-3.715-1.49-1.168-1.318-1.125-3.009-1.125-3.48v-4.894c0-.696-.156-1.19-.476-1.51-.459-.458-1.24-.555-1.508-.545H8.389c-.924 0-1.673-.76-1.673-1.696 0-.937.75-1.696 1.673-1.696h6.351c.381-.008 2.388.023 3.884 1.482.69.673 1.513 1.908 1.513 3.965v5.141c0 .147.006.681.277.976.268.293.81.355 1.216.355h7.108c.407 0 .947-.062 1.216-.355.27-.295.277-.836.277-1.002v-8.867z"/>
    </g>
</svg>
