<svg xmlns="http://www.w3.org/2000/svg" width="20" height="20" viewBox="0 0 20 20">
    <path fill="#FFF" fill-rule="nonzero" d="M16.563 0H8.438A3.428 3.428 0 0 0 5 3.438V5H3.437A3.428 3.428 0 0 0 0 8.438v4.374c0 1.876 1.531 3.438 2.813 3.438l-.344 2.813c-.063.5.219.687.656.375l4.313-3.188h4.125A3.45 3.45 0 0 0 15 13.031l1.906 1.406c.407.313.719.157.657-.374l-.375-2.813c1.28 0 2.812-1.531 2.812-3.438V3.438A3.428 3.428 0 0 0 16.562 0zM13.75 12.813A2.174 2.174 0 0 1 11.562 15h-4.53l-3.095 2.281L4.22 15H2.812c-.656 0-1.562-1.063-1.562-2.188V8.439c0-1.22.969-2.188 2.188-2.188h8.124c.282 0 .532.063.782.156.812.313 1.406 1.094 1.406 2v4.406zm5-5c0 1.125-.938 2.187-1.563 2.187h-1.406l.281 2.281L15 11.5V8.406a3.386 3.386 0 0 0-2.25-3.187A3.08 3.08 0 0 0 11.562 5H6.25V3.437c0-1.218.969-2.187 2.188-2.187h8.124c1.22 0 2.188.969 2.188 2.188v4.374z"/>
</svg>
