<svg xmlns="http://www.w3.org/2000/svg" width="81" height="33" viewBox="0 0 81 33">
    <g fill="#888" fill-rule="evenodd" opacity=".5">
        <path d="M68.505 20.334l-.006.009c-.588.699-1.232 1.166-2.17 1.166-1.114 0-1.985-.801-1.985-1.82 0-.905.386-1.444 1.53-2.134.08-.047.17-.037.225.018l2.389 2.5a.185.185 0 0 1 .064.13v.004l-.047.127zm-1.63-8.025c.762 0 1.174.527 1.174 1.17 0 .751-.672 1.187-1.48 1.638l-.04.02a.167.167 0 0 1-.199-.033l-.017-.02c-.352-.383-.767-.995-.767-1.437 0-.752.538-1.338 1.328-1.338zm6.441 10.108l-2.276-2.35a.193.193 0 0 1-.032-.256l1.736-2.923a.335.335 0 0 0-.292-.5h-1.271a.345.345 0 0 0-.304.174l-1.1 1.901c-.05.072-.16.09-.24.037l-1.776-1.829-.04-.109.056-.126.021-.019c1.005-.584 2.15-1.443 2.15-2.957 0-1.738-1.248-2.905-3.104-2.905-1.82 0-3.2 1.218-3.2 3.035 0 .8.335 1.596 1.022 2.435l.017.019.034.124a.176.176 0 0 1-.064.117c-1.514.86-2.277 2-2.277 3.392 0 2.364 1.977 3.601 3.933 3.601 1.341 0 2.387-.515 3.396-1.673l.019-.025c.06-.058.172-.058.24.01l1.222 1.265.032.033a.341.341 0 0 0 .239.097l1.5.002h.116a.339.339 0 0 0 .339-.336.343.343 0 0 0-.096-.234zM60.87 21.486l-.072.001c-1.827 0-2.752-.968-2.752-2.876v-5.623c0-.098.08-.177.179-.177h2.862a.341.341 0 0 0 .34-.34v-1.248a.341.341 0 0 0-.34-.341h-2.854a.186.186 0 0 1-.187-.186V8.112a.344.344 0 0 0-.327-.35h-.04l-1.465.113a.34.34 0 0 0-.332.34v2.49c0 .098-.081.177-.18.177l-1.797-.002a.342.342 0 0 0-.342.34l-.004 1.256a.341.341 0 0 0 .108.24.343.343 0 0 0 .246.095h1.79c.099 0 .18.08.18.177l-.001 6c0 3.22 2.423 4.368 4.55 4.368 0 0 .25.005.443-.015.192-.017.337-.152.337-.339v-1.178a.34.34 0 0 0-.342-.338M50.465 17.849c-.29 2.05-1.3 3.233-3.164 3.54-1.312.215-2.501-.325-2.565-1.73-.072-1.545 1.723-2.841 5.034-2.699 0 0 .244.014.407.034.146.016.235.062.29.148.053.082.063.245-.002.707m2.208 4.652a3.193 3.193 0 0 1-.156-.844c-.007-.117-.011-.59-.011-.59v-5.94c0-3.139-2.22-4.256-4.297-4.256-1.645 0-3.145.432-4.111 1.076a.354.354 0 0 0-.15.215.33.33 0 0 0 .048.25l.765 1.034c.11.149.318.182.468.074l.103-.067a4.863 4.863 0 0 1 2.553-.74c2.563 0 2.488 2.007 2.488 2.268 0 .133-.08.166-.177.164l-.396-.008c-1.988-.073-7.034.604-7.034 4.604 0 2.35 1.96 3.547 3.785 3.547 1.77 0 3.194-.702 3.905-1.562l.008-.01.036-.018.045.046c0 .11 0 .358.024.574.016.195.041.34.074.447.03.093.09.187.18.232a.336.336 0 0 0 .143.037l1.42.001a.333.333 0 0 0 .335-.327c0-.057-.048-.207-.048-.207M80.143 21.486l-.071.001c-1.827 0-2.753-.968-2.753-2.876v-5.623c0-.098.08-.177.18-.177h2.861c.19 0 .343-.153.343-.34v-1.248a.342.342 0 0 0-.343-.341h-2.853a.186.186 0 0 1-.188-.186V8.112a.341.341 0 0 0-.326-.35h-.04l-1.464.113a.34.34 0 0 0-.334.34v2.49c0 .098-.08.177-.178.177l-1.798-.002a.341.341 0 0 0-.34.34l-.003 1.256a.343.343 0 0 0 .351.335h1.79c.098 0 .179.08.179.177v6c0 3.22 2.424 4.368 4.55 4.368 0 0 .251.005.444-.015.192-.017.335-.152.335-.339v-1.178a.34.34 0 0 0-.342-.338M2.188 10.051c0-.77.11-1.309.314-1.793.352-.715.744-1.408 1.182-2.069-.114.187-.178.4-.178.656 0 1.674 4.099 3.85 9.695 4.56 1.896.242 6.916.926 10.8.607 7.847-.648 9.589-3.388 9.589-5.167 0-.487-.263-1.198-.528-1.613A18.7 18.7 0 0 1 34.065 6.7c.602 1.044.524 1.459.524 1.641 0 3.638-6.772 6.01-11.299 7.25-11.623 3.174-21.102-1.154-21.102-5.54m3.708-5.097c0 1.64 2.384 4.262 9.3 4.262 4.1 0 7.41-.793 9.91-1.623 4.007-1.331 5.99-2.96 5.917-4.171a1.215 1.215 0 0 0-.304-.735c-.89-.798-1.86-1.509-2.897-2.116.685.397 1.072.862 1.072 1.378 0 1.805-4.414 3.46-10.178 3.611-5.763.145-10.54-1.273-10.67-3.073-.04-.598.388-1.186 1.205-1.706-.625.388-1.222.807-1.787 1.263-1.605 1.332-1.568 2.736-1.568 2.91M20.9 26.132c-3.511.124-9.69-1.084-13.584-2.677-3.132-1.275-6.232-3.765-6.56-6.14.036.57.1 1.134.19 1.687 1.92 10.473 15.117 9.876 17.387 9.625C34.931 26.784 36.358 19.7 36.577 18.3c.032-.293.063-.584.086-.88-.295 1.863-3.1 8.257-15.762 8.712M8.28 28.522c-2.978-1.231-5.038-3.279-5.864-4.774a18.049 18.049 0 0 0 2.941 4.414c3.88 3.647 9.845 4.09 12.585 4.09 11.6 0 15.74-6.097 16.679-7.729.173-.328.337-.66.488-1-1.833 3.782-11.353 11.392-26.83 5m28.093-15.235c0-.291-.037-.87-.174-1.464a16.953 16.953 0 0 0-.328-1.18c.214.73.184 1.245.184 1.44 0 .895-1.115 6.352-12.016 7.346-.944.082-7.87.192-13.894-1.331-4.007-1.013-8.029-2.973-8.79-5.696-.119-.424-.063-.816.028-1.18a17.88 17.88 0 0 0-.607 3.383c.068 2.863 2.558 6.2 7.112 7.642 5.208 1.637 8.404 1.692 15.973.004 12.631-2.818 12.512-8.348 12.512-8.964"/>
    </g>
</svg>
