<svg xmlns="http://www.w3.org/2000/svg" width="73" height="19" viewBox="0 0 73 19">
    <g fill="none" fill-rule="evenodd" opacity=".5">
        <path d="M-40-10h154v38H-40z"/>
        <g fill="#888">
            <path d="M10.01.162H6.935l-.018 10.633C5.598 6.876 4.276 4.282 2.951.162H0V18.99c.995-.136 2.062-.267 3.059-.392.003-3.935.006-6.354.008-10.289a588.828 588.828 0 0 0 3.585 9.839c1.072-.118 2.25-.263 3.325-.367L10.009.162M21.488.162h-8.513l-.035 17.37c2.848-.25 5.7-.453 8.552-.61l.005-2.91a976.4 976.4 0 0 0-5.479.343l.01-4.4c1.35-.023 2.778-.004 4.158-.026l.005-2.923c-1.368.023-2.812.026-4.158.05l.01-3.967a216.433 216.433 0 0 1 2.94-.01h.435c.69 0 1.384-.002 2.09-.007.001-.847-.021-2.063-.02-2.91M32.963.175h-9.48c0 .842-.002 2.053-.004 2.894l.408-.001c.412 0 .824.004 1.236.008a130.33 130.33 0 0 0 1.55.007c-.005 4.667-.012 8.93-.018 13.598 1.003-.036 2.076-.066 3.08-.09l.013-13.522 3.214-.01.001-2.884M43.506.162h-8.548l-.003 16.35a254.952 254.952 0 0 1 3.046.005l-.002-6.736a174.894 174.894 0 0 0 1.715-.002c.405-.002.812-.004 1.216-.004.416 0 .828.002 1.231.007l-.002-2.891c-.38-.004-.77-.005-1.162-.005l-1.27.003-1.257.003h-.472l-.001-3.814a685.567 685.567 0 0 0 2.01 0h1.016c.826 0 1.652.001 2.486.005l-.003-2.92M45.502.176c.007 5.502-.02 11.004-.013 16.506 2.733.098 5.605.204 8.335.386l-.005-2.91c-1.728-.098-3.526-.215-5.256-.284-.007-4.712.02-8.986.012-13.698h-3.073M56.346.176l.035 17.07c1.001.075 2.037.155 3.038.24.003-5.766.012-11.54 0-17.31h-3.073M62.054.176c1.229 2.878 2.353 5.763 3.601 8.818a626.298 626.298 0 0 1-3.913 8.666c1.073.101 2.184.25 3.256.365.77-1.813 1.47-3.209 2.24-5.07.768 1.983 1.467 3.515 2.234 5.563 1.07.133 2.459.325 3.528.471a509.661 509.661 0 0 0-4.017-9.945c1.298-2.955 2.622-5.777 3.97-8.867h-3.355c-.833 1.91-1.405 3.137-2.203 4.955-.743-1.891-1.241-3.116-1.985-4.955h-3.356"/>
        </g>
    </g>
</svg>
