<svg xmlns="http://www.w3.org/2000/svg" width="61" height="43" viewBox="0 0 61 43">
    <g fill="none" fill-rule="evenodd" opacity=".5">
        <g fill="#888">
            <path d="M54.72 20.453c-.01.092-.104.093-.104.093l-3.534-.003c.021.54.15.921.411 1.18.255.256.66.418 1.21.418.838.002 1.197-.167 1.45-.262 0 0 .098-.035.133.062l.232.65c.046.11.01.147-.03.17-.222.123-.76.352-1.78.355-.496.001-.928-.07-1.284-.208a2.344 2.344 0 0 1-.889-.592 2.353 2.353 0 0 1-.512-.903 3.813 3.813 0 0 1-.16-1.133 4 4 0 0 1 .155-1.133c.103-.352.264-.662.478-.922.216-.261.489-.47.814-.624.326-.153.727-.228 1.167-.228.38 0 .726.082 1.013.206.22.096.444.268.672.515.143.154.363.494.452.83.226.8.109 1.492.105 1.53zm-5.235 2.394a4.248 4.248 0 0 1-1.479.265c-.905 0-1.599-.262-2.062-.78-.461-.514-.694-1.217-.694-2.087 0-.403.056-.783.17-1.13.113-.347.283-.654.507-.91.225-.257.508-.464.842-.612.334-.15.725-.225 1.164-.225.293 0 .558.018.783.052.242.037.561.124.696.177.025.01.094.044.066.124-.098.28-.165.46-.257.716-.039.108-.121.073-.121.073a3.488 3.488 0 0 0-1.104-.159c-.516 0-.904.174-1.159.512-.256.342-.399.788-.4 1.381-.002.653.16 1.136.448 1.435.287.298.69.449 1.194.449.207 0 .398-.014.572-.041.173-.028.335-.08.486-.14 0 0 .1-.038.134.064l.256.711c.033.088-.042.125-.042.125zm-4.42-5.18a50.76 50.76 0 0 1-.266.746c-.023.06-.06.103-.13.096 0 0-.202-.049-.388-.049-.127 0-.31.017-.473.068-.162.05-.309.137-.438.264a1.32 1.32 0 0 0-.309.522c-.078.222-.117.576-.117.932v2.646c0 .06-.048.107-.107.107h-.929a.107.107 0 0 1-.107-.107v-5.297c0-.06.042-.107.101-.107h.906c.06 0 .102.048.102.107v.433c.135-.183.378-.344.597-.443.221-.1.467-.175.912-.148.231.016.533.08.593.102.023.01.08.048.052.128zm-4.37 3.71a2.525 2.525 0 0 1-.475.91 2.246 2.246 0 0 1-.802.608c-.32.146-.696.22-1.119.22-.424 0-.8-.074-1.12-.22a2.24 2.24 0 0 1-.802-.608 2.528 2.528 0 0 1-.475-.91 3.983 3.983 0 0 1-.154-1.128c0-.402.052-.78.154-1.127.103-.348.262-.655.475-.91a2.28 2.28 0 0 1 .802-.614 2.63 2.63 0 0 1 1.12-.225c.423 0 .8.076 1.119.225.32.15.59.356.802.613.213.255.373.562.475.91.102.348.154.726.154 1.128 0 .402-.052.78-.154 1.127zm-5.174-3.042c-.02.107-.119.103-.119.103h-1.164l-.796 4.526c-.084.469-.188.87-.311 1.193-.124.327-.254.567-.46.795-.19.211-.405.368-.653.458a2.57 2.57 0 0 1-.867.135c-.155 0-.321-.003-.518-.05a2.648 2.648 0 0 1-.323-.094c-.045-.017-.08-.071-.055-.142a102 102 0 0 1 .262-.722c.037-.092.128-.057.128-.057.063.027.107.046.191.062.084.017.198.031.283.031.154 0 .294-.019.416-.06.148-.049.233-.135.324-.25.093-.12.17-.285.246-.505.08-.224.15-.518.212-.876l.793-4.444h-.781c-.094 0-.125-.044-.115-.114l.132-.738c.02-.108.118-.104.118-.104h.802l.043-.24c.12-.712.36-1.254.711-1.61.354-.358.858-.54 1.497-.54a2.675 2.675 0 0 1 .83.12c.025.01.092.045.065.125l-.27.745c-.024.056-.039.09-.154.054-.028-.008-.071-.02-.18-.044a1.507 1.507 0 0 0-.291-.029c-.14 0-.267.018-.38.054a.737.737 0 0 0-.295.186c-.089.089-.193.218-.248.379-.13.375-.181.775-.187.8h1.13c.095 0 .124.044.115.115l-.131.738zm-6.175 4.8c-.614 0-1.202-.097-1.824-.428-.118-.067-.233-.128-.348-.211-.013-.018-.065-.038-.026-.14l.247-.687c.036-.113.142-.071.164-.057.067.043.119.079.207.13.727.463 1.4.466 1.611.466.544 0 .882-.29.882-.679v-.021c0-.425-.52-.585-1.122-.77l-.133-.042c-.825-.237-1.708-.578-1.708-1.627v-.02c0-.997.8-1.692 1.945-1.692h.124c.674 0 1.323.196 1.793.483.043.026.085.076.061.141l-.254.688c-.044.118-.166.04-.166.04a3.589 3.589 0 0 0-1.59-.41c-.484 0-.797.26-.797.61v.021c0 .41.535.585 1.155.788l.108.034c.822.261 1.7.623 1.7 1.618v.02c0 1.077-.778 1.745-2.03 1.745zm-2.938-2.682c-.01.092-.103.093-.103.093l-3.534-.003c.021.54.15.921.411 1.18.255.256.662.418 1.21.418.838.002 1.197-.167 1.45-.262 0 0 .098-.035.133.062l.232.65c.046.11.01.147-.03.17-.221.123-.76.352-1.78.355-.496.001-.928-.07-1.284-.208a2.344 2.344 0 0 1-.889-.592 2.351 2.351 0 0 1-.512-.903 3.813 3.813 0 0 1-.16-1.133 4 4 0 0 1 .155-1.133c.103-.352.264-.662.479-.922.215-.261.488-.47.813-.624.326-.153.726-.228 1.168-.228.379 0 .724.082 1.012.206.222.096.444.268.672.515.143.154.363.494.451.83.227.8.11 1.492.106 1.53zm-5.854 2.439c0 .06-.042.108-.1.108h-.939c-.059 0-.1-.049-.1-.108v-7.578c0-.06.041-.108.1-.108h.938c.06 0 .101.048.101.108v7.578zm-2.373-.103s-.13.036-.247.063c-.119.028-.543.115-.89.174-.35.06-.711.09-1.074.09-.344 0-.659-.032-.937-.096a1.935 1.935 0 0 1-.72-.314 1.459 1.459 0 0 1-.46-.555 1.85 1.85 0 0 1-.162-.811c0-.308.063-.584.189-.818.125-.234.297-.431.512-.586.214-.153.462-.268.738-.343.275-.075.568-.113.871-.113.223 0 .408.006.551.017 0 0 .28.025.583.069v-.15c0-.474-.098-.697-.29-.847-.198-.151-.492-.23-.874-.23 0 0-.86-.01-1.54.36-.032.02-.058.03-.058.03s-.086.03-.117-.057l-.25-.675c-.038-.098.032-.142.032-.142.317-.25 1.09-.4 1.09-.4.256-.052.681-.088.947-.088.706 0 1.253.165 1.624.491.372.328.561.855.561 1.568l.002 3.247s.007.094-.08.116zm-5.122-1.398c0 1.076-.777 1.744-2.028 1.744-.614 0-1.202-.097-1.824-.428-.118-.067-.233-.128-.348-.211-.012-.018-.064-.038-.026-.14l.247-.687c.04-.118.129-.08.164-.057.069.042.119.079.207.13.727.463 1.4.466 1.611.466.543 0 .881-.29.881-.679v-.021c0-.425-.519-.585-1.12-.77l-.134-.042c-.826-.237-1.708-.578-1.708-1.627v-.02c0-.997.8-1.692 1.945-1.692h.125c.672 0 1.322.196 1.792.483.043.026.085.076.061.141l-.254.688c-.044.118-.166.04-.166.04a3.589 3.589 0 0 0-1.59-.41c-.484 0-.797.26-.797.61v.021c0 .41.535.585 1.155.788l.108.034c.822.261 1.7.623 1.7 1.618v.02zM47.84 5.929a12.96 12.96 0 0 0-5.318 1.136c-1.87-3.348-5.383-5.602-9.409-5.602-3.029 0-5.767 1.276-7.734 3.335A11.814 11.814 0 0 0 15.96.12C9.42.121 4.115 5.441 4.115 12.003c0 1.68.348 3.277.975 4.726A10.354 10.354 0 0 0 0 25.679c0 5.705 4.557 10.33 10.179 10.33.717 0 1.417-.076 2.092-.219C13.816 40 17.84 43 22.562 43c4.534 0 8.425-2.767 10.094-6.712a9.524 9.524 0 0 0 4.205.972c3.603 0 6.742-1.994 8.389-4.944.838.169 1.704.259 2.59.259 7.261 0 13.149-5.965 13.149-13.323 0-7.358-5.888-13.323-13.149-13.323z"/>
            <path d="M52.394 18.313c-.464 0-.794.184-1.01.516-.144.219-.236.5-.286.837l2.521.001c-.025-.326-.088-.618-.234-.838-.22-.332-.527-.516-.991-.516M38.3 18.336c-.465 0-.796.161-1.014.492-.218.335-.33.814-.33 1.421 0 .608.112 1.088.331 1.426.217.335.548.499 1.012.499.464 0 .796-.164 1.017-.499.222-.338.335-.818.335-1.426 0-.607-.113-1.086-.335-1.42-.22-.332-.553-.493-1.017-.493M24.083 18.313c-.464 0-.793.184-1.011.516-.143.219-.235.5-.285.837l2.521.001c-.025-.326-.088-.618-.233-.838-.221-.332-.528-.516-.992-.516M15.151 20.632c-.212.15-.315.375-.315.687 0 .198.036.353.107.462.045.072.064.1.203.21-.003 0 .317.252 1.036.208.506-.031.955-.127.955-.127v-1.615s-.454-.075-.96-.082c-.72-.01-1.027.257-1.026.257"/>
        </g>
        <path d="M-41 7h142v31H-41z"/>
    </g>
</svg>
