<svg xmlns="http://www.w3.org/2000/svg" xmlns:xlink="http://www.w3.org/1999/xlink" width="37" height="58" viewBox="0 0 37 58">
    <defs>
        <path id="a" d="M36.854 0v57.37H0V0z"/>
    </defs>
    <g fill="none" fill-rule="evenodd">
        <mask id="b" fill="#fff">
            <use xlink:href="#a"/>
        </mask>
        <path fill="#1F5C87" d="M5.977 10.617h23.59V7.243H5.977v3.374zM29.774 6.02H5.77c-.56 0-1.013.456-1.013 1.015v3.788c0 .56.454 1.014 1.013 1.014h24.004c.56 0 1.013-.454 1.013-1.014V7.036c0-.559-.454-1.015-1.013-1.015z" mask="url(#b)"/>
        <path fill="#1F5C87" d="M31.738 46.718c-.004-.007-.014-.008-.019-.017a2.01 2.01 0 0 0 1.523-2.726.34.34 0 0 1 .104-.39c.488-.387.768-.963.768-1.583 0-.622-.28-1.198-.768-1.584a.337.337 0 0 1-.104-.39 2.009 2.009 0 0 0-.126-1.755 2.007 2.007 0 0 0-1.456-.987.334.334 0 0 1-.283-.285 2.015 2.015 0 0 0-2.74-1.584.34.34 0 0 1-.39-.105 2.005 2.005 0 0 0-1.58-.767c-.618 0-1.196.28-1.581.767a.34.34 0 0 1-.39.104 1.998 1.998 0 0 0-1.751.128 2.014 2.014 0 0 0-.988 1.455.335.335 0 0 1-.285.287 2.014 2.014 0 0 0-1.58 2.743.337.337 0 0 1-.104.389 2.002 2.002 0 0 0-.766 1.584c0 .621.278 1.198.764 1.582.12.095.16.25.106.39-.23.578-.184 1.22.126 1.755.31.538.84.898 1.454.989a.335.335 0 0 1 .285.285c.025.166.073.325.134.476l-1.34 3.168H1.24V1.243h34.373v49.404h-2.118l-1.758-3.929zM30.39 48.46c.216-.126.395-.295.549-.484l2.532 5.65-1.389-.407a.63.63 0 0 0-.673.232l-.842 1.17-1.592-5.94c.481.098.981.029 1.415-.221zm-4.19.943a1.984 1.984 0 0 0 1.6-.308l.417 1.552h-2.307l.29-1.244zm-3.189-.915a1.994 1.994 0 0 0 1.683.098.337.337 0 0 1 .39.104c.002.003.006.003.007.007l-1.469 6.28-.511-.98a.611.611 0 0 0-.728-.306l-1.802.545 2.43-5.748zm9.025-6.486a5.379 5.379 0 0 1-5.37 5.376 5.38 5.38 0 0 1-5.37-5.376 5.38 5.38 0 0 1 5.37-5.378 5.38 5.38 0 0 1 5.37 5.378zM35.821 0H1.034C.464 0 0 .464 0 1.036v49.818c0 .572.464 1.036 1.034 1.036h19.19l-1.302 3.082a.626.626 0 0 0 .11.658.631.631 0 0 0 .641.18l2.578-.781 1.043 2.006a.62.62 0 0 0 .629.33.623.623 0 0 0 .527-.475l1.17-5h2.93l1.157 4.313a.63.63 0 0 0 .492.453.617.617 0 0 0 .61-.249l1.35-1.87 2.256.664c.24.07.488-.007.642-.189a.62.62 0 0 0 .099-.663l-1.102-2.46h1.767c.571 0 1.034-.463 1.034-1.035V1.036C36.855.464 36.392 0 35.821 0z" mask="url(#b)"/>
        <path fill="#1F5C87" d="M29.853 38.73a.577.577 0 0 0-.407.202l-4.333 4.94-2.198-1.609a.598.598 0 1 0-.705.963l2.64 1.932.066.047.68-.075 4.745-5.409a.595.595 0 0 0-.052-.842.585.585 0 0 0-.436-.149M7.065 40.126a1.635 1.635 0 0 0 0 3.27 1.637 1.637 0 0 0 0-3.27M13.517 40.126a1.635 1.635 0 0 0 0 3.27 1.637 1.637 0 0 0 0-3.27M29.963 19.717H5.582a.611.611 0 0 0-.61.61c0 .336.274.61.61.61h24.381a.61.61 0 0 0 0-1.22M29.963 23.865H5.582a.611.611 0 0 0-.61.61c0 .336.274.61.61.61h24.381a.61.61 0 0 0 0-1.22M22.816 28.014H5.581a.61.61 0 0 0 0 1.22h17.235a.61.61 0 0 0 0-1.22" mask="url(#b)"/>
    </g>
</svg>
