<svg xmlns="http://www.w3.org/2000/svg" xmlns:xlink="http://www.w3.org/1999/xlink" width="34" height="56" viewBox="0 0 34 56">
    <defs>
        <path id="a" d="M0 55.673h33.337V0H0z"/>
    </defs>
    <g fill="none" fill-rule="evenodd">
        <path fill="#1F5C87" d="M22.824 32.797c0-3.388-2.761-6.144-6.155-6.144s-6.156 2.756-6.156 6.144c0 3.388 2.762 6.144 6.156 6.144 3.394 0 6.155-2.756 6.155-6.144zm-6.155-7.457c4.118 0 7.47 3.345 7.47 7.457 0 4.113-3.352 7.457-7.47 7.457-4.12 0-7.47-3.344-7.47-7.457 0-4.112 3.35-7.457 7.47-7.457zM19.65 50.782h-5.96a.657.657 0 1 0 0 1.312h5.96a.657.657 0 1 0 0-1.312"/>
        <mask id="b" fill="#fff">
            <use xlink:href="#a"/>
        </mask>
        <path fill="#1F5C87" d="M6.44 19.91h20.458v-5.7H6.44v5.7zm20.677-6.918H6.22c-.552 0-1 .45-1 1.001v6.135c0 .552.448 1.002 1 1.002h20.897c.553 0 1.001-.45 1.001-1.002v-6.135c0-.551-.448-1.001-1-1.001z" mask="url(#b)"/>
        <path fill="#1F5C87" d="M32.022 1.531v52.61c0 .121-.098.22-.22.22H1.534a.22.22 0 0 1-.219-.22V1.532c0-.12.1-.218.22-.218h30.269c.12 0 .219.098.219.218M31.802 0H1.534C.688 0 0 .688 0 1.531v52.61c0 .844.69 1.532 1.534 1.532h30.27c.845 0 1.534-.688 1.534-1.532V1.532c0-.843-.69-1.531-1.534-1.531" mask="url(#b)"/>
        <path fill="#1F5C87" d="M29.392 6.254v40.36c0 .121-.098.219-.219.219H4.163a.22.22 0 0 1-.22-.219V6.254c0-.12.1-.219.22-.219h25.01c.121 0 .22.098.22.219m-.22-1.531H4.163c-.845 0-1.534.687-1.534 1.531v40.36c0 .844.689 1.531 1.534 1.531h25.01c.845 0 1.534-.687 1.534-1.53V6.253c0-.844-.689-1.531-1.534-1.531" mask="url(#b)"/>
        <path fill="#1F5C87" d="M7.77 17.589l.487.882.987-.648-.05 1.175h1.008l-.06-1.171.98.64.504-.876-1.041-.53 1.045-.53-.51-.864-.979.632.061-1.174H9.194l.051 1.176-.987-.635-.489.866 1.04.528zM12.418 17.589l.486.882.989-.648-.051 1.175h1.01l-.062-1.171.98.64.505-.876-1.041-.53 1.043-.53-.509-.864-.978.632.062-1.174h-1.01l.05 1.176-.986-.635-.49.866 1.04.528zM17.066 17.589l.486.882.987-.648-.049 1.175h1.008l-.061-1.171.98.64.505-.876-1.042-.53 1.045-.53-.51-.864-.978.632.061-1.174H18.49l.05 1.176-.986-.635-.49.866 1.04.528zM21.714 17.589l.485.882.99-.648-.052 1.175h1.01l-.061-1.171.978.64.505-.876-1.042-.53 1.045-.53-.51-.864-.976.632.061-1.174h-1.01l.051 1.176-.987-.635-.49.866 1.04.528zM20.51 29.355a.618.618 0 0 0-.432.214l-4.59 5.216-2.328-1.699a.631.631 0 1 0-.747 1.017l2.865 2.09.722-.08 5.026-5.711a.627.627 0 0 0-.056-.89.582.582 0 0 0-.46-.157" mask="url(#b)"/>
    </g>
</svg>
