<svg xmlns="http://www.w3.org/2000/svg" width="17" height="11" viewBox="0 0 17 11">
    <path fill="#8D919A" fill-rule="evenodd" d="M15.234 5.007V3.238h-1.26v1.769h-1.817V6.27h1.816v1.82h1.261V6.27H17V5.007h-1.766zm-9.18-.101v2.021l2.754-.002c-.432 1.31-1.103 2.024-2.755 2.024-1.671 0-2.976-1.358-2.976-3.032 0-1.675 1.305-3.033 2.976-3.033.884 0 1.455.312 1.978.745.42-.42.385-.48 1.45-1.488A5.071 5.071 0 0 0 6.054.812 5.1 5.1 0 0 0 .958 5.918a5.1 5.1 0 0 0 5.095 5.104c4.206 0 5.234-3.67 4.894-6.115H6.053z"/>
</svg>
