<svg xmlns="http://www.w3.org/2000/svg" width="13" height="11" viewBox="0 0 13 11">
    <path fill="#8D919A" fill-rule="evenodd" d="M6.376 3.596l.026.43-.434-.053C4.39 3.77 3.012 3.089 1.841 1.942l-.572-.57-.148.421C.81 2.73 1.01 3.72 1.66 4.384c.347.368.269.42-.33.201-.208-.07-.39-.122-.407-.096-.06.061.147.858.312 1.173.226.438.685.867 1.188 1.12l.425.202-.503.009c-.486 0-.503.008-.451.192.173.57.858 1.173 1.621 1.436l.538.184-.468.28a4.882 4.882 0 0 1-2.324.648c-.39.008-.71.043-.71.07 0 .087 1.057.577 1.673.77 1.846.569 4.04.324 5.687-.648 1.171-.691 2.342-2.066 2.888-3.396.295-.71.59-2.005.59-2.626 0-.403.025-.455.511-.937.286-.28.555-.586.607-.674.087-.166.078-.166-.364-.017-.737.262-.841.227-.477-.167.269-.28.59-.788.59-.936 0-.027-.13.017-.278.096a4.837 4.837 0 0 1-.763.297l-.468.15-.425-.29c-.234-.157-.564-.332-.737-.385-.442-.122-1.119-.105-1.517.035-1.084.394-1.77 1.41-1.691 2.521z"/>
</svg>
