<svg xmlns="http://www.w3.org/2000/svg" width="88" height="28" viewBox="0 0 88 28">
    <g fill="none" fill-rule="evenodd" opacity=".5">
        <path d="M-46-9h180v44.59H-46z"/>
        <g fill="#888">
            <path d="M54.525 21.276c-5.097 3.83-12.487 5.866-18.85 5.866-8.92 0-16.951-3.356-23.03-8.942-.476-.438-.05-1.038.523-.698 6.557 3.884 14.666 6.222 23.041 6.222 5.65 0 11.86-1.192 17.575-3.66.862-.372 1.585.579.741 1.212"/>
            <path d="M56.647 18.811c-.652-.85-4.31-.402-5.953-.203-.498.061-.575-.38-.126-.701 2.917-2.087 7.698-1.484 8.254-.786.56.705-.147 5.584-2.881 7.912-.42.359-.82.167-.634-.305.614-1.565 1.992-5.066 1.34-5.917M50.81 3.17V1.141a.498.498 0 0 1 .504-.514h8.926c.285 0 .514.21.515.512v1.738c-.003.292-.244.672-.673 1.276l-4.623 6.72c1.716-.042 3.531.22 5.09 1.112.352.2.447.5.474.791v2.163c0 .298-.32.643-.656.464-2.748-1.465-6.394-1.625-9.431.018-.31.168-.635-.172-.635-.47v-2.057c0-.328.005-.891.332-1.393l5.356-7.822h-4.664a.501.501 0 0 1-.516-.51M18.252 15.83h-2.716a.517.517 0 0 1-.486-.467l.002-14.186c0-.284.235-.511.524-.511h2.53a.516.516 0 0 1 .493.476v1.852h.05c.66-1.791 1.902-2.627 3.575-2.627 1.698 0 2.762.836 3.523 2.627.659-1.791 2.154-2.627 3.751-2.627 1.141 0 2.383.477 3.143 1.552.862 1.194.685 2.925.685 4.448l-.002 8.952c0 .283-.235.511-.524.511h-2.712a.515.515 0 0 1-.488-.51V7.8c0-.597.05-2.09-.076-2.657-.203-.955-.811-1.224-1.597-1.224-.66 0-1.344.448-1.623 1.164-.279.717-.253 1.91-.253 2.717v7.52c0 .282-.234.51-.524.51h-2.712a.515.515 0 0 1-.487-.51l-.003-7.52c0-1.582.253-3.91-1.673-3.91-1.952 0-1.875 2.268-1.875 3.91l-.002 7.52c0 .282-.234.51-.523.51M68.463 3.262c-2.002 0-2.129 2.776-2.129 4.508 0 1.731-.025 5.433 2.104 5.433 2.104 0 2.205-2.985 2.205-4.806 0-1.194-.05-2.627-.405-3.761-.305-.986-.913-1.374-1.775-1.374M68.438.367c4.03 0 6.21 3.522 6.21 8 0 4.328-2.408 7.762-6.21 7.762-3.954 0-6.109-3.523-6.109-7.912 0-4.417 2.18-7.85 6.11-7.85M79.874 15.83h-2.705a.515.515 0 0 1-.487-.51l-.005-14.191A.518.518 0 0 1 77.2.666h2.519a.519.519 0 0 1 .482.397v2.17h.051c.761-1.94 1.825-2.866 3.7-2.866 1.217 0 2.409.448 3.169 1.672.71 1.134.71 3.044.71 4.417v8.927a.518.518 0 0 1-.52.447h-2.722a.517.517 0 0 1-.484-.447V7.68c0-1.552.178-3.82-1.698-3.82-.66 0-1.268.447-1.571 1.134-.38.865-.432 1.73-.432 2.686v7.64a.524.524 0 0 1-.529.51M46.432 15.794a.556.556 0 0 1-.642.065c-.901-.763-1.063-1.116-1.556-1.843-1.49 1.546-2.546 2.01-4.477 2.01-2.286 0-4.064-1.436-4.064-4.308 0-2.244 1.193-3.77 2.895-4.518 1.474-.658 3.532-.777 5.106-.957v-.36c0-.657.05-1.435-.33-2.003-.33-.51-.965-.718-1.524-.718-1.036 0-1.956.54-2.182 1.66-.048.248-.226.494-.472.507l-2.632-.29c-.222-.05-.47-.232-.405-.577C36.754 1.212 39.637.23 42.22.23c1.321 0 3.048.359 4.09 1.376 1.32 1.256 1.194 2.932 1.194 4.757v4.306c0 1.295.528 1.863 1.025 2.562.173.251.212.55-.01.734-.554.473-1.54 1.344-2.082 1.835l-.006-.006zm-2.738-6.739c0 1.077.026 1.975-.508 2.932-.432.778-1.117 1.257-1.88 1.257-1.041 0-1.65-.808-1.65-2.005 0-2.354 2.074-2.782 4.038-2.782v.598zM10.836 15.794a.555.555 0 0 1-.642.065c-.902-.763-1.064-1.116-1.556-1.843-1.491 1.546-2.547 2.01-4.477 2.01-2.287 0-4.064-1.436-4.064-4.308 0-2.244 1.193-3.77 2.895-4.518 1.473-.658 3.531-.777 5.106-.957v-.36c0-.657.05-1.435-.33-2.003-.33-.51-.966-.718-1.525-.718-1.035 0-1.956.54-2.182 1.66-.047.248-.225.494-.472.507L.957 5.04c-.222-.05-.469-.232-.404-.577C1.157 1.212 4.04.23 6.625.23c1.32 0 3.048.359 4.09 1.376 1.32 1.256 1.193 2.932 1.193 4.757v4.306c0 1.295.529 1.863 1.025 2.562.173.251.212.55-.009.734-.554.473-1.54 1.344-2.082 1.835l-.006-.006zM8.098 9.055c0 1.077.025 1.975-.508 2.932-.432.778-1.118 1.257-1.88 1.257-1.041 0-1.651-.808-1.651-2.005 0-2.354 2.074-2.782 4.039-2.782v.598z"/>
        </g>
    </g>
</svg>
