<svg xmlns="http://www.w3.org/2000/svg" width="68" height="54" viewBox="0 0 68 54">
    <g fill="#1F5C87" fill-rule="evenodd">
        <path d="M49.504 18.976c-.038-.006-.07-.022-.11-.022-.039 0-.073.016-.11.022h-5.25l.003 4.518-5.713-4.518H23.128V2.216H55.07v16.76h-5.566zM16.53 51.952c-.292.045-.585.078-.878.103-.344.027-.688.052-1.037.052-.351 0-.695-.025-1.039-.052a12.785 12.785 0 0 1-.87-.1 16.36 16.36 0 0 1-.313-.047A12.883 12.883 0 0 1 4.845 47.6c.184-.74.378-1.4.588-2.017.861-2.51 4.12-3.173 5.687-3.492.359-.074.625-.13.797-.185.356-.12.97-.48 1.075-1.575l.043-.469-.429-.203c-1.627-.768-2.678-2.415-2.678-4.193 0-2.563 2.1-4.648 4.687-4.648 2.582 0 4.685 2.085 4.685 4.648 0 1.78-1.051 3.425-2.678 4.193l-.43.203.044.47c.102 1.038.641 1.429 1.077 1.574.17.056.438.111.796.185 1.568.32 4.827.981 5.686 3.49.207.607.406 1.283.589 2.019a12.872 12.872 0 0 1-7.552 4.307c-.1.016-.201.032-.302.044zM16.5 25.95c.21.029.415.092.623.131.275.052.549.11.82.178v1.383c0 .348.284.632.637.632h3.44l-.003 4.127a.632.632 0 0 0 .637.632.646.646 0 0 0 .398-.138l2.191-1.732c1.68 2.248 2.628 4.987 2.628 7.799 0 .599-.054 1.19-.134 1.773a18.85 18.85 0 0 1-.07.46c-.1.568-.221 1.13-.395 1.677-.016.054-.04.104-.056.156a12.869 12.869 0 0 1-.607 1.495c-.061.13-.123.26-.188.389-.266.515-.56 1.02-.897 1.504-.013.016-.027.032-.038.048a25.39 25.39 0 0 0-.406-1.313c-1.107-3.238-4.882-4.006-6.697-4.377l-.08-.014c-.246-.05-.44-.09-.56-.13a.086.086 0 0 1-.032-.021 5.992 5.992 0 0 0 2.946-5.141c0-3.306-2.71-5.994-6.042-5.994-3.333 0-6.044 2.688-6.044 5.994a5.99 5.99 0 0 0 2.948 5.14.086.086 0 0 1-.033.022c-.12.04-.313.078-.56.13l-.082.016c-1.814.37-5.587 1.137-6.694 4.375-.145.421-.28.854-.408 1.313-.01-.016-.023-.03-.034-.046-.34-.487-.635-.995-.903-1.513-.063-.124-.123-.25-.183-.375a12.886 12.886 0 0 1-.613-1.515c-.015-.048-.036-.093-.05-.141a12.68 12.68 0 0 1-.395-1.682 9.547 9.547 0 0 1-.071-.456 13.135 13.135 0 0 1-.136-1.774c0-7.248 5.947-13.145 13.258-13.145.633 0 1.263.045 1.886.133zm28.512 1.06h-16.34a.637.637 0 0 0-.396.139l-4.984 3.94.002-3.447a.63.63 0 0 0-.637-.631h-3.44V11.062h2.637V19.2c0 .573.468 1.04 1.047 1.04h14.977l5.732 4.532a1.057 1.057 0 0 0 1.107.124 1.04 1.04 0 0 0 .594-.937l-.002-3.72h3.447v4.965a14.614 14.614 0 0 0-3.693 1.815c-.018-.002-.033-.01-.05-.01zm10.225 24.943c-.29.045-.581.078-.874.103a13.24 13.24 0 0 1-1.039.052c-.35 0-.693-.025-1.035-.052a12.92 12.92 0 0 1-.88-.103 7.53 7.53 0 0 1-.3-.044 12.876 12.876 0 0 1-7.554-4.307c.181-.729.38-1.407.59-2.019.858-2.509 4.117-3.17 5.686-3.49.359-.074.626-.13.797-.187.356-.118.968-.479 1.074-1.573l.046-.469-.431-.203c-1.627-.768-2.678-2.413-2.678-4.193 0-2.563 2.103-4.648 4.685-4.648 2.586 0 4.687 2.085 4.687 4.648 0 1.78-1.051 3.425-2.678 4.193l-.43.203.044.469c.1 1.037.64 1.43 1.077 1.575.17.056.436.111.796.185 1.567.32 4.827.981 5.686 3.492.208.61.407 1.288.588 2.017a12.872 12.872 0 0 1-7.55 4.307 8.452 8.452 0 0 1-.307.044zm11.21-11.218a18.85 18.85 0 0 1-.07.46c-.098.568-.22 1.13-.394 1.677-.017.054-.04.104-.058.158-.169.51-.373 1.006-.605 1.493-.061.13-.123.26-.188.389-.266.515-.56 1.02-.9 1.504-.01.016-.025.032-.036.048a24.53 24.53 0 0 0-.405-1.312c-1.11-3.242-4.884-4.008-6.697-4.378l-.084-.016c-.246-.05-.44-.088-.555-.126a.13.13 0 0 1-.035-.023 5.986 5.986 0 0 0 2.948-5.141c0-3.306-2.71-5.994-6.044-5.994-3.332 0-6.043 2.688-6.043 5.994a5.99 5.99 0 0 0 2.948 5.14.086.086 0 0 1-.032.022c-.12.04-.313.078-.56.13l-.079.014c-1.815.37-5.59 1.136-6.698 4.377-.14.409-.276.85-.407 1.313-.01-.016-.023-.03-.034-.046-.34-.485-.635-.991-.903-1.51-.064-.125-.125-.254-.187-.382-.231-.49-.438-.987-.606-1.5-.016-.052-.04-.1-.056-.154a12.849 12.849 0 0 1-.394-1.678 19.976 19.976 0 0 1-.071-.458 13.134 13.134 0 0 1-.134-1.774c0-7.248 5.947-13.145 13.256-13.145 7.311 0 13.26 5.897 13.26 13.145 0 .599-.057 1.19-.136 1.773zm-2.162 7.782c.149-.167.297-.334.438-.508.143-.176.277-.36.41-.543.138-.187.278-.374.404-.568.124-.183.234-.373.348-.563.121-.205.246-.407.358-.617.105-.194.194-.393.29-.592.103-.218.21-.431.304-.654.085-.208.157-.421.233-.633.08-.224.167-.445.237-.673.07-.23.123-.467.183-.702.054-.217.118-.432.163-.653.056-.278.09-.563.13-.849.027-.184.064-.367.082-.554.049-.477.076-.958.076-1.446 0-7.991-6.559-14.49-14.617-14.49-1.133 0-2.233.14-3.292.383V20.24h5.265c.577 0 1.045-.466 1.045-1.039V1.991c0-.574-.468-1.039-1.045-1.039H22.9c-.579 0-1.047.465-1.047 1.04v7.807H18.58a.634.634 0 0 0-.637.632v14.45c-.19-.045-.382-.084-.574-.122-.226-.043-.449-.11-.677-.141a14.86 14.86 0 0 0-2.077-.148C6.556 24.47 0 30.97 0 38.96c0 .489.025.97.074 1.447.018.187.056.37.082.554.04.286.074.571.132.85.045.222.108.437.163.658.06.231.112.468.18.696.071.231.16.456.243.684.074.208.145.416.228.619.096.228.205.445.31.666.094.195.18.39.282.58.114.214.24.419.365.627.113.187.221.373.34.555.13.197.274.385.413.576.132.18.263.36.402.533.143.177.297.348.449.518.152.173.306.347.467.51.154.158.316.309.477.46a12.201 12.201 0 0 0 1.037.886c.194.149.388.296.589.434.175.124.354.239.537.353a12.452 12.452 0 0 0 1.207.69 13.77 13.77 0 0 0 1.278.574 14.008 14.008 0 0 0 2.016.624c.24.056.485.11.73.155.218.037.439.07.66.098.26.034.52.065.785.086.087.008.168.024.255.03l.224.012.002-.016c.23.01.456.034.688.034.232 0 .458-.024.688-.034v.016l.226-.013c.085-.005.168-.021.253-.029.266-.021.527-.052.786-.086.22-.028.441-.06.658-.098a16.578 16.578 0 0 0 1.401-.325 15.6 15.6 0 0 0 1.346-.454 14.558 14.558 0 0 0 2.487-1.264c.18-.114.36-.23.537-.353.2-.138.395-.285.587-.434.17-.133.342-.266.506-.406.183-.154.357-.316.53-.48.164-.151.325-.302.478-.46.163-.163.315-.337.467-.51.152-.17.306-.34.45-.518.14-.173.269-.354.4-.533.142-.19.283-.379.413-.576.122-.182.23-.368.34-.555.126-.208.252-.413.366-.626.103-.19.19-.388.284-.583.105-.22.214-.436.308-.662.085-.205.154-.417.23-.625.083-.226.17-.45.24-.68.071-.228.124-.465.181-.696.057-.221.12-.436.165-.659.056-.278.09-.563.13-.849.028-.184.064-.367.084-.554.047-.477.072-.958.072-1.446 0-2.924-.856-5.696-2.485-8.086-.06-.088-.128-.17-.191-.259-.075-.104-.152-.206-.23-.308l2.575-2.035H43.49c-2.928 2.652-4.78 6.454-4.78 10.688 0 .488.026.969.073 1.446.02.187.056.37.083.554.04.286.075.571.13.85.046.222.11.437.165.658.058.231.11.468.181.696.071.231.16.456.243.684.074.208.145.416.228.619.094.228.203.445.31.666.092.195.18.39.282.58.114.214.24.419.365.627.11.187.22.373.34.555.13.197.272.385.413.576.132.18.26.36.402.533.143.177.297.348.449.518.152.173.305.347.466.51.154.158.315.309.478.46.174.164.348.326.53.48.165.14.337.273.507.406.192.149.387.296.587.434.177.124.356.239.537.353a13.575 13.575 0 0 0 1.207.69 14.727 14.727 0 0 0 2.626 1.028 16.578 16.578 0 0 0 1.4.325c.218.037.439.07.66.098.258.034.519.065.785.086.085.008.168.024.253.03l.226.012v-.016c.23.01.456.034.688.034.233 0 .46-.024.69-.034v.016l.226-.013c.087-.005.168-.021.255-.029.262-.021.523-.052.782-.086a13.446 13.446 0 0 0 2.066-.425 13.949 13.949 0 0 0 1.956-.709 16.462 16.462 0 0 0 1.235-.623c.219-.123.432-.253.644-.387.177-.113.353-.226.525-.346a17.694 17.694 0 0 0 1.095-.84c.184-.158.363-.323.543-.49.155-.147.314-.294.465-.45.166-.17.322-.345.48-.52z"/>
        <path d="M28.513 9.443c-.984 0-1.786.795-1.786 1.77 0 .977.802 1.772 1.786 1.772.985 0 1.786-.795 1.786-1.771 0-.976-.801-1.771-1.786-1.771M35.57 9.443c-.985 0-1.786.795-1.786 1.77 0 .977.801 1.772 1.786 1.772.984 0 1.786-.795 1.786-1.771 0-.976-.802-1.771-1.786-1.771M42.627 9.443c-.984 0-1.786.795-1.786 1.77 0 .977.802 1.772 1.786 1.772.985 0 1.786-.795 1.786-1.771 0-.976-.801-1.771-1.786-1.771M49.684 9.443c-.984 0-1.786.795-1.786 1.77 0 .977.802 1.772 1.786 1.772s1.786-.795 1.786-1.771c0-.976-.802-1.771-1.786-1.771"/>
    </g>
</svg>
