<svg xmlns="http://www.w3.org/2000/svg" width="12" height="12" viewBox="0 0 12 12">
    <path fill="#8D919A" fill-rule="evenodd" d="M2.724 3.95v7.591H.152v-7.59h2.572zm.17-2.347c0 .729-.559 1.312-1.456 1.312h-.016C.558 2.915 0 2.332 0 1.603 0 .859.575.292 1.455.292c.88 0 1.422.567 1.439 1.31zM12 7.189v4.352H9.428v-4.06c0-1.02-.372-1.717-1.303-1.717-.71 0-1.134.47-1.32.923-.068.162-.085.389-.085.615v4.24H4.148s.034-6.879 0-7.59H6.72v1.074c.342-.517.953-1.253 2.319-1.253C10.73 3.773 12 4.858 12 7.189z"/>
</svg>
