<svg xmlns="http://www.w3.org/2000/svg" xmlns:xlink="http://www.w3.org/1999/xlink" width="56" height="58" viewBox="0 0 56 58">
    <defs>
        <path id="a" d="M.214.65H24.66v25.047H.214z"/>
        <path id="c" d="M16.807 12.885H0V.347h16.807z"/>
    </defs>
    <g fill="none" fill-rule="evenodd">
        <g transform="translate(15.135 -.099)">
            <mask id="b" fill="#fff">
                <use xlink:href="#a"/>
            </mask>
            <path fill="#1F5C87" d="M23.411 14.706c-.018.133-.036.265-.059.397-.081.491-.184.977-.328 1.448-.015.047-.035.092-.05.138-.14.439-.312.868-.505 1.289a13.64 13.64 0 0 1-.158.338c-.224.445-.469.88-.75 1.298l-.032.042a21.391 21.391 0 0 0-.34-1.134c-.927-2.8-4.084-3.463-5.6-3.782l-.067-.014a4.768 4.768 0 0 1-.47-.112.057.057 0 0 1-.027-.018 5.204 5.204 0 0 0 2.466-4.443c0-2.855-2.268-5.178-5.054-5.178-2.788 0-5.055 2.323-5.055 5.178 0 1.823.94 3.509 2.465 4.443a.062.062 0 0 1-.025.018c-.1.034-.264.068-.47.112l-.066.014c-1.518.32-4.675.981-5.602 3.782-.118.354-.231.734-.34 1.135a11.602 11.602 0 0 1-.938-1.676 11.108 11.108 0 0 1-.508-1.295c-.015-.045-.034-.088-.048-.133-.144-.473-.247-.96-.328-1.452a8.268 8.268 0 0 1-.06-.395 11.678 11.678 0 0 1-.113-1.533c0-6.265 4.973-11.36 11.088-11.36 6.113 0 11.088 5.095 11.088 11.36 0 .518-.047 1.027-.114 1.533m-9.388 9.698c-.234.036-.47.065-.708.085-.29.024-.583.045-.878.045-.295 0-.583-.021-.872-.045a11.28 11.28 0 0 1-.725-.087c-.088-.012-.175-.026-.263-.04a10.707 10.707 0 0 1-6.311-3.722c.152-.628.317-1.215.493-1.744.717-2.17 3.445-2.742 4.755-3.016.3-.064.524-.112.666-.162.364-.124.815-.46.9-1.36l.037-.404-.358-.176c-1.363-.663-2.242-2.087-2.242-3.625 0-2.213 1.759-4.015 3.92-4.015s3.918 1.802 3.918 4.015c0 1.538-.879 2.962-2.24 3.625l-.357.174.037.405c.081.9.534 1.237.899 1.361.142.05.364.098.666.162 1.31.274 4.036.846 4.755 3.016.173.52.338 1.107.492 1.743a10.69 10.69 0 0 1-6.296 3.72c-.096.017-.191.031-.288.045M.344 14.903c.033.245.062.491.11.732.037.193.091.38.137.57.05.2.092.403.151.6.06.202.133.397.203.594.063.179.121.359.19.534.08.197.172.386.26.578.078.166.15.335.236.498.095.186.202.364.307.544.094.16.183.321.283.476.11.172.228.337.346.503.11.153.218.307.333.454.121.157.252.307.38.456.127.147.253.293.386.434.13.138.268.27.406.403.142.14.287.277.437.408.141.123.285.24.43.355a10.443 10.443 0 0 0 .941.682c.171.114.343.221.518.325a13.596 13.596 0 0 0 1.032.538c.174.08.35.157.53.228a11.213 11.213 0 0 0 1.125.39 11.95 11.95 0 0 0 1.17.28 13.154 13.154 0 0 0 1.205.16c.07.007.14.021.213.026l.189.01v-.013c.192.01.381.03.575.03.194 0 .383-.02.575-.03v.014l.19-.011c.072-.005.14-.019.213-.025a12.836 12.836 0 0 0 1.82-.293 11.327 11.327 0 0 0 1.684-.54 11.962 11.962 0 0 0 2.08-1.091 11.948 11.948 0 0 0 .941-.682c.142-.115.284-.229.42-.35.153-.134.301-.274.448-.417a9.903 9.903 0 0 0 .79-.839c.127-.145.253-.291.373-.445.118-.15.228-.307.339-.463.116-.165.233-.326.342-.494.101-.158.192-.322.287-.485.103-.178.21-.353.303-.536.086-.166.16-.339.24-.508.087-.189.178-.375.255-.569.071-.178.13-.363.195-.544.068-.194.14-.386.2-.583.057-.199.101-.403.151-.606.046-.188.099-.374.136-.566.047-.24.076-.487.11-.732.022-.162.052-.318.07-.481.04-.411.061-.828.061-1.249C24.66 6.268 19.177.65 12.437.65 5.696.65.214 6.268.214 13.173c0 .42.021.838.06 1.249.017.163.049.32.07.48" mask="url(#b)"/>
        </g>
        <g transform="translate(0 44.394)">
            <mask id="d" fill="#fff">
                <use xlink:href="#c"/>
            </mask>
            <path fill="#1F5C87" d="M8.404 7.4l-6.43-5.91h12.863L8.404 7.4zM1.115 2.236l7.29 6.696 7.287-6.696v9.312a.192.192 0 0 1-.19.194H1.304a.192.192 0 0 1-.189-.194V2.237zM15.502.347H1.304C.585.347 0 .947 0 1.683v9.866c0 .737.585 1.337 1.304 1.337h14.198c.72 0 1.305-.6 1.305-1.337V1.683c0-.736-.584-1.336-1.305-1.336z" mask="url(#d)"/>
        </g>
        <path fill="#1F5C87" d="M54.028 50.186l-1.786-2.923c-.1-.164-.317-.304-.503-.268a.565.565 0 0 0-.452.284l-2.596 4.596-1.36-2.326a.536.536 0 0 0-.446-.275c-.184-.027-.387.083-.5.26L45.32 51.22l-.753-.661a.529.529 0 0 0-.429-.135.558.558 0 0 0-.384.23l-1.604 2.234-1.26-1.053a.546.546 0 0 0-.738.031l-.701.695v-6.66c0-.107.085-.194.19-.194h14.197c.105 0 .19.087.19.194v4.284zM39.45 54.152l1.118-1.11 1.33 1.111c.117.1.269.141.423.124a.561.561 0 0 0 .378-.228l1.596-2.222.784.687a.538.538 0 0 0 .442.132.554.554 0 0 0 .387-.255l.928-1.467 1.383 2.372c.1.169.282.276.498.276h.006c.12-.017.351-.093.457-.284l2.608-4.615 2.239 3.666v3.43a.193.193 0 0 1-.19.194H39.64a.193.193 0 0 1-.19-.194v-1.617zm14.387-9.587H39.64c-.719 0-1.305.6-1.305 1.337v9.867c0 .737.586 1.335 1.305 1.335h14.198c.72 0 1.305-.598 1.305-1.335v-9.867c0-.737-.586-1.337-1.305-1.337zM8.404 43.169c.313 0 .568-.261.568-.582v-6.412h18.032v6.412c0 .321.255.582.567.582.314 0 .568-.261.568-.582v-6.412h18.033v6.412c0 .321.255.582.568.582.312 0 .567-.261.567-.582v-6.606a.96.96 0 0 0-.946-.97H28.14V26.79a.576.576 0 0 0-.568-.581.577.577 0 0 0-.567.581v8.223H8.782a.96.96 0 0 0-.945.969v6.606c0 .321.254.582.567.582M34.86 45.902v9.866a.192.192 0 0 1-.189.194h-14.2a.192.192 0 0 1-.189-.194v-9.866c0-.107.085-.194.19-.194h14.2c.104 0 .188.087.188.194m-.189-1.337h-14.2c-.719 0-1.303.6-1.303 1.337v9.866c0 .737.584 1.337 1.303 1.337h14.2c.719 0 1.303-.6 1.303-1.337v-9.866c0-.737-.584-1.337-1.303-1.337"/>
        <path fill="#1F5C87" d="M32.986 47.759h-9.205a.564.564 0 0 0-.557.57c0 .315.25.57.557.57h9.205a.564.564 0 0 0 .557-.57c0-.315-.25-.57-.557-.57M22.245 47.652c-.338 0-.612.304-.612.678 0 .375.274.679.612.679.337 0 .611-.304.611-.68 0-.373-.274-.677-.611-.677M32.986 50.264h-9.205a.564.564 0 0 0-.557.571c0 .315.25.57.557.57h9.205a.564.564 0 0 0 .557-.57c0-.315-.25-.57-.557-.57M22.245 50.157c-.338 0-.612.304-.612.677 0 .376.274.68.612.68.337 0 .611-.304.611-.68 0-.373-.274-.677-.611-.677M32.986 52.77h-9.205a.564.564 0 0 0-.557.57c0 .315.25.57.557.57h9.205a.564.564 0 0 0 .557-.57c0-.315-.25-.57-.557-.57M22.245 52.662c-.338 0-.612.304-.612.677 0 .376.274.68.612.68.337 0 .611-.304.611-.68 0-.373-.274-.677-.611-.677"/>
    </g>
</svg>
