<svg xmlns="http://www.w3.org/2000/svg" width="108" height="16" viewBox="0 0 108 16">
    <g fill="none" fill-rule="evenodd" opacity=".5">
        <path fill="#999" d="M59.29 7.373s-1.004-.662-1.624-.918c0 0-1.92-.95-2.302-1.401 0 0-.748-.753-.31-1.626 0 0 .183-.572.974-.572 0 0 1.03.06 1.03.964v1.273h3.69l-.007-1.876S61.025.145 56.395.01c0 0-3.642-.256-4.686 1.837 0 0-.41.466-.41 2.093v1.174s-.042 1.356.607 2.229c0 0 .367.572 1.27 1.203 0 0 1.836 1.056 2.937 1.658 0 0 1.111.677.964 1.754 0 0-.09 1.106-1.163 1.06 0 0-.982-.047-.982-1.13v-1.274H51v1.85S50.89 16 55.943 16c0 0 4.828.105 5.053-3.63v-1.505s.17-2.288-1.706-3.492M39.367 1l-1.26 8.243h-.296l-1.204-8.169h-6.292L30 16h3.725l.045-11.247h.293l1.974 11.244h3.919l1.95-11.24h.26L42.255 16H46l-.403-15zM16.635 1L14 16h4.264l1.56-11.63h.351L21.736 16H26L23.365 1zM103.037 7.284v2.21h1.052v2.372c0 1.159-.968 1.18-.968 1.18-1.178 0-1.134-1.102-1.134-1.102V3.741c0-.845 1.045-.89 1.045-.89 1.004 0 1.011 1.008 1.011 1.008v1.247h3.864c.126-2.434-.348-3.023-.348-3.023C106.6-.12 102.975 0 102.975 0c-5.573 0-4.955 4.373-4.955 4.373v7.932c.12 4.102 5.61 3.685 5.703 3.68 2.443-.276 3.18-1.07 3.18-1.07.68-.516.854-1.229.854-1.229.194-.416.243-1.743.243-1.743v-4.66h-4.963zM90.517 10.128h-.163l-3.805-9.127H82V16h3.703l-.222-9.126h.165L89.586 16H94V1h-3.75zM72.73 11.939s.058 1.197-1.11 1.197c0 0-1.23.062-1.23-1.168L70.377 1h-4.37v10.88S65.56 16 71.68 16c0 0 5.32.06 5.32-3.93V1h-4.27v10.939zM8.288 7.373s-1.002-.662-1.623-.918c0 0-1.92-.948-2.3-1.402 0 0-.749-.753-.31-1.625 0 0 .182-.572.973-.572 0 0 1.03.06 1.03.963v1.274H9.75l-.008-1.877S10.024.144 5.395.01c0 0-.349-.024-.86.003 0 0-2.804.16-3.806 1.802l-.02.032s-.41.466-.41 2.093v1.174S.257 6.469.907 7.342c0 0 .367.572 1.27 1.205 0 0 1.834 1.054 2.935 1.657 0 0 1.113.676.966 1.754 0 0-.09 1.106-1.163 1.061 0 0-.982-.048-.982-1.132v-1.274H0v1.85S-.11 16 4.943 16c0 0 4.827.105 5.053-3.63v-1.504s.17-2.289-1.708-3.493"/>
        <path d="M-22-12h154v39H-22z"/>
    </g>
</svg>
