<svg xmlns="http://www.w3.org/2000/svg" xmlns:xlink="http://www.w3.org/1999/xlink" width="51" height="54" viewBox="0 0 51 54">
    <defs>
        <path id="a" d="M.762 43.459H19.43V.138H.76z"/>
    </defs>
    <g fill="none" fill-rule="evenodd">
        <path fill="#1F5C87" d="M7.386 15.936c-.023.05-.076.163-.152.321l-.105.224c-.572 1.189-1.76 3.664-2.3 5.438-.403 1.319-.028 2.905.046 3.185l1.093 7.608c.052.936.683 1.884 1.789 1.884.087 0 .18-.006.28-.021.533-.076.964-.35 1.217-.77.358-.602.214-1.265.138-1.507-.028-.12-.68-3.01-.792-4.99-.013-.227-.03-.45-.05-.664-.116-1.395-.039-1.535.49-1.767.229-.1.436-.152.62-.152.726 0 1.124.966 1.17 1.08l2.622 6.715c.094.241.275.437.51.551 2.59 1.256 3.192 5.385 3.207 6.869.022 2.17-1.05 3.769-1.06 3.785a1.068 1.068 0 0 0-.156.348c-.05.223-.286 1.453.197 3.839.255 1.264.705 3.376.993 4.72H8.728c-.233-3.179-2.61-8.534-5.035-13.756l-.052-.115c-.538-1.16-1.093-2.36-1.165-2.635-.137-.51-.209-1.645-.3-3.085l-.003-.052c-.128-2.07-.302-4.904-.811-8.01-.557-3.416.907-5.71.963-5.797a.94.94 0 0 0 .075-.125l3.58-7.064c.172-.079.497-.207.8-.207.193 0 .592 0 .834 1.012.161.68.251 1.78-.228 3.138m9.97 31.728c-.404-1.998-.246-3.071-.211-3.27.187-.28 1.28-2.039 1.257-4.466-.02-2.094-.848-6.423-3.83-7.934l-2.594-6.634c-.028-.076-.672-1.872-2.318-1.872-.353 0-.728.086-1.113.256-1.423.627-1.332 1.728-1.224 3.004.018.203.035.414.046.632.119 2.123.822 5.2.837 5.254.032.092.093.365-.012.536-.057.099-.168.157-.337.181-.593.084-.657-.676-.66-.725l-1.116-7.77c-.003-.016-.403-1.498-.074-2.574.511-1.676 1.67-4.093 2.227-5.253.2-.42.282-.594.32-.704.577-1.623.458-2.97.26-3.814-.387-1.622-1.32-1.962-2.033-1.962-.868 0-1.648.493-1.683.514l-.046.03-3.735 7.378c-.075.11-1.827 2.693-1.17 6.707.495 3.023.67 5.835.797 7.888.1 1.593.171 2.745.339 3.378.105.39.601 1.465 1.291 2.952 1.864 4.014 5.33 11.49 4.905 14.235l-.04.237h11.23l-.054-.249c-.008-.04-.866-4.02-1.259-5.955"/>
        <g transform="translate(31.22 10.41)">
            <mask id="b" fill="#fff">
                <use xlink:href="#a"/>
            </mask>
            <path fill="#1F5C87" d="M17.254 22.63c-.09 1.44-.162 2.576-.299 3.085-.077.292-.683 1.598-1.217 2.752-2.422 5.222-4.802 10.575-5.035 13.755H2.288c.288-1.343.738-3.457.993-4.722.483-2.384.248-3.614.195-3.838a1.06 1.06 0 0 0-.154-.348c-.012-.016-1.083-1.596-1.06-3.784.015-1.485.618-5.614 3.207-6.868.235-.116.416-.31.51-.553l2.634-6.74c.016-.043.41-1.053 1.158-1.053.184 0 .391.05.618.15.532.234.608.372.493 1.765-.021.216-.038.44-.05.668-.113 1.979-.765 4.867-.788 4.975-.08.255-.225.918.133 1.521.253.42.684.693 1.22.77.096.013.19.02.277.02 1.1 0 1.739-.933 1.781-1.794l1.098-7.675c.11-.43.439-1.932.05-3.208-.702-2.302-2.556-5.985-2.56-5.985-.004-.017-.59-1.6-.228-3.134.244-1.014.643-1.014.835-1.014.302 0 .63.128.804.207l3.577 7.065c.021.04.047.083.069.112.062.098 1.523 2.41.97 5.81-.508 3.107-.684 5.94-.812 8.009l-.004.052zm.874-14.545L14.405.733l-.026-.05-.046-.03c-.035-.02-.815-.515-1.683-.515-.713 0-1.646.341-2.033 1.964-.455 1.93.249 3.788.288 3.884.016.038 1.863 3.728 2.519 5.885.329 1.078-.07 2.56-.08 2.6l-1.111 7.762c-.002.03-.045.716-.559.716a.594.594 0 0 1-.104-.009c-.165-.023-.276-.082-.333-.18-.105-.17-.043-.445-.003-.558.006-.032.71-3.11.828-5.234.011-.216.028-.427.046-.631.108-1.274.199-2.376-1.223-3.004a2.802 2.802 0 0 0-1.114-.254c-1.646 0-2.29 1.794-2.315 1.865l-2.596 6.64c-2.978 1.508-3.81 5.84-3.83 7.935-.024 2.425 1.07 4.186 1.256 4.466.035.198.193 1.271-.211 3.27-.393 1.934-1.25 5.914-1.26 5.953l-.053.251h11.23l-.04-.237c-.426-2.747 3.041-10.221 4.905-14.237.69-1.486 1.186-2.56 1.291-2.952.168-.633.238-1.784.339-3.376.128-2.055.304-4.866.797-7.888.657-4.015-1.095-6.6-1.156-6.684z" mask="url(#b)"/>
        </g>
        <path fill="#1F5C87" d="M25.679 31.858l.003-.017c0-.006-.003-.011-.003-.016V28.56l.003-.016c0-.007-.003-.012-.003-.017V18.653c0-.007.003-.013.003-.02 0-.003-.003-.008-.003-.013v-1.697h10.603v3.987c0 6.317-3.005 8.097-4.995 9.278-.731.433-1.651.864-2.558 1.287-1.197.558-2.266 1.064-3.05 1.61v-1.227zm-1.232-16.171H13.843V4.426c1.009.712 2.723 1.45 5.488 1.45 2.613 0 4.189-1.15 5.116-2.278v12.089zm11.835-4.53v1.557a2446.667 2446.667 0 0 1-7.032-7.002c.474.096.977.165 1.542.165.081 0 .15-.007.229-.008.424.527 1.658 1.767 5.261 5.287zM24.447 28.802v1.56c-4.368-4.335-10.147-10.096-10.535-10.56-.02-.032-.048-.044-.069-.07v-1.53c1.316 1.375 4.213 4.269 10.604 10.6zm-8.542-11.88c.63.74 2.57 2.688 8.542 8.582v1.558c-3.798-3.765-8.655-8.606-10.142-10.14h1.6zm8.242 0h.3v.289l-.3-.289zm.3 5.286v1.56a913.706 913.706 0 0 1-6.869-6.846h1.594c.508.592 1.835 1.923 5.275 5.286zm0-3.29v1.562a422.283 422.283 0 0 1-3.588-3.558h1.588c.246.309.795.861 2 1.995zm8.224-3.245c-2.6-2.556-6.544-6.463-6.992-6.981V7.16c1.216 1.263 3.667 3.708 8.533 8.526h-1.533l-.008-.013zm-5.052.013h-1.94v-1.911c.45.455 1.078 1.072 1.94 1.91zm1.775 0c-1.651-1.598-3.44-3.367-3.715-3.685v-1.533c.895.921 2.476 2.494 5.243 5.218h-1.528zm6.888-1.235v1.235h-.312c-3.824-3.784-9.486-9.418-10.291-10.293v-1.54c1.29 1.348 4.165 4.219 10.603 10.598zm0-6.59v1.566a367.225 367.225 0 0 1-3.697-3.668c.48-.065.912-.155 1.311-.262.316.37.981 1.032 2.386 2.364zm0-1.71a79.1 79.1 0 0 1-1.119-1.1c.44-.197.817-.412 1.12-.626v1.726zM22.908 32.104c-3.92-3.873-8.238-8.178-8.91-8.905a15.986 15.986 0 0 1-.137-1.68c1.306 1.363 4.192 4.245 10.586 10.581v.985a12.228 12.228 0 0 0-1.433-.828c-.03-.055-.06-.109-.106-.153zm-3.25-1.478c-.282-.145-.575-.292-.823-.438-1.377-.816-3.239-1.924-4.254-4.623a602.714 602.714 0 0 0 5.077 5.061zm17.857-9.716V2.978a.622.622 0 0 0-.444-.592.606.606 0 0 0-.693.264c-.055.081-1.38 1.99-5.586 1.99-4.183 0-5.095-3.434-5.133-3.58-.003-.012-.013-.016-.015-.026a.613.613 0 0 0-.192-.293c-.013-.012-.028-.02-.044-.03a.595.595 0 0 0-.345-.12.6.6 0 0 0-.344.119c-.018.011-.033.02-.049.033a.616.616 0 0 0-.189.288c-.002.012-.013.017-.016.028-.038.147-.955 3.581-5.134 3.581-4.24 0-5.567-1.965-5.577-1.98a.611.611 0 0 0-.693-.277.618.618 0 0 0-.45.595V20.91c0 .91.06 1.735.167 2.488-.001.015-.006.028-.006.045a.354.354 0 0 0 .047.181c.773 4.874 3.594 6.564 5.39 7.627.794.47 1.743.914 2.664 1.344 1.506.702 3.381 1.576 3.606 2.245.002.005.007.009.009.014a.63.63 0 0 0 .195.265c.018.015.038.027.06.04.093.06.2.104.32.104s.226-.043.32-.104a.594.594 0 0 0 .255-.307c.001-.005.006-.007.006-.01.227-.67 2.102-1.545 3.622-2.255.915-.427 1.863-.87 2.649-1.336 2.093-1.241 5.6-3.319 5.6-10.34z"/>
    </g>
</svg>
