<svg xmlns="http://www.w3.org/2000/svg" width="20" height="20" viewBox="0 0 20 20">
    <path fill="#FFF" fill-rule="nonzero" d="M10 0A9.99 9.99 0 0 0 0 10a9.99 9.99 0 0 0 10 10 9.99 9.99 0 0 0 10-10A9.99 9.99 0 0 0 10 0zm0 18.75A8.736 8.736 0 0 1 1.25 10 8.736 8.736 0 0 1 10 1.25 8.736 8.736 0 0 1 18.75 10 8.736 8.736 0 0 1 10 18.75zM14.688 10h-4.376V2.812c0-.187-.124-.312-.312-.312h-.625c-.188 0-.313.125-.313.313v8.124c0 .188.126.313.313.313h5.313c.187 0 .312-.125.312-.313v-.624c0-.188-.125-.313-.313-.313z"/>
</svg>
