<svg xmlns="http://www.w3.org/2000/svg" xmlns:xlink="http://www.w3.org/1999/xlink" width="56" height="50" viewBox="0 0 56 50">
    <defs>
        <path id="a" d="M55.434.056v49.317H0V.056z"/>
        <path id="c" d="M0 49.882h55.434V.564H0z"/>
    </defs>
    <g fill="none" fill-rule="evenodd">
        <g transform="translate(0 .51)">
            <mask id="b" fill="#fff">
                <use xlink:href="#a"/>
            </mask>
            <path fill="#1F5C87" d="M39.329 28.127h12.7a.923.923 0 0 0 .913-.929v-3.41a.925.925 0 0 0-.914-.93H39.33v-2.776h12.7a.923.923 0 0 0 .913-.929v-3.41a.925.925 0 0 0-.914-.93H39.33v-2.776h12.7a.923.923 0 0 0 .913-.93v-3.41a.923.923 0 0 0-.914-.928H39.33v-2.18h14.906v40.25H39.329V28.127zm.002-1.132h12.497v-3.003H39.331v3.003zm-.002-8.045h12.498v-3.004H39.329v3.004zm0-8.046h12.498V7.901H39.329v3.003zM17.305 46.06V1.276h20.824V48.153H17.305V46.06zm-1.2-39.291H3.396a.923.923 0 0 0-.913.929v3.41c0 .512.41.929.913.929h12.709v2.775H3.396a.925.925 0 0 0-.913.93v3.411c0 .513.41.929.913.929h12.709v2.776H3.396a.925.925 0 0 0-.913.93v3.41c0 .513.41.93.913.93h12.709v16.711H1.199V4.59h14.906v2.18zM3.596 10.904h12.498V7.901H3.596v3.003zm.002 8.046h12.497v-3.004H3.598v3.004zm0 8.045h12.497v-3.003H3.598v3.003zM54.435 3.368H39.329V1.073c0-.562-.448-1.017-1-1.017H17.105c-.552 0-1 .455-1 1.017v2.295H.999c-.55 0-1 .456-1 1.017v40.658c0 .561.45 1.017 1 1.017h15.106v2.297c0 .56.448 1.017 1 1.017h21.224c.552 0 1-.457 1-1.017V46.06h15.106c.552 0 1-.456 1-1.017V4.385c0-.561-.448-1.017-1-1.017z" mask="url(#b)"/>
        </g>
        <path fill="#1F5C87" d="M10.188 36.713c1.561 0 2.833 1.292 2.833 2.882 0 1.588-1.272 2.881-2.833 2.881-1.562 0-2.834-1.293-2.834-2.881 0-1.59 1.272-2.882 2.834-2.882m0 6.983c2.224 0 4.033-1.84 4.033-4.101 0-2.262-1.81-4.102-4.033-4.102-2.224 0-4.034 1.84-4.034 4.102 0 2.261 1.81 4.101 4.034 4.101M45.246 42.475c-1.562 0-2.834-1.292-2.834-2.881 0-1.588 1.272-2.881 2.834-2.881s2.834 1.293 2.834 2.88c0 1.59-1.272 2.882-2.834 2.882m0-6.983c-2.224 0-4.034 1.84-4.034 4.102 0 2.261 1.81 4.101 4.034 4.101 2.224 0 4.034-1.84 4.034-4.101 0-2.262-1.81-4.102-4.034-4.102M27.717 45.36c-1.843 0-3.344-1.524-3.344-3.398s1.5-3.4 3.344-3.4c1.843 0 3.343 1.526 3.343 3.4 0 1.874-1.5 3.398-3.343 3.398m0-8.019c-2.505 0-4.544 2.073-4.544 4.62s2.039 4.62 4.544 4.62c2.504 0 4.543-2.073 4.543-4.62s-2.039-4.62-4.543-4.62"/>
        <mask id="d" fill="#fff">
            <use xlink:href="#c"/>
        </mask>
        <path fill="#1F5C87" d="M19.947 8.003h15.541V4.69h-15.54v3.313zM35.688 3.49H19.746a.99.99 0 0 0-.98.996v3.72c0 .548.44.995.98.995h15.942a.99.99 0 0 0 .98-.996V4.487a.99.99 0 0 0-.98-.996zM19.947 16.775h15.541v-3.312h-15.54v3.312zm15.741-4.51H19.746c-.54 0-.98.446-.98.995v3.719c0 .55.44.995.98.995h15.942c.54 0 .98-.445.98-.995v-3.72a.988.988 0 0 0-.98-.994zM19.947 25.548h15.541v-3.313h-15.54v3.313zm15.741-4.51H19.746c-.54 0-.98.446-.98.994v3.72c0 .55.44.995.98.995h15.942c.54 0 .98-.446.98-.996v-3.719a.988.988 0 0 0-.98-.994z" mask="url(#d)"/>
    </g>
</svg>
